<?xml version="1.0" encoding="utf-8"?>
<!-- Generator: Adobe Illustrator 20.1.0, SVG Export Plug-In . SVG Version: 6.00 Build 0)  -->
<svg version="1.1" id="Layer_1" xmlns="http://www.w3.org/2000/svg" xmlns:xlink="http://www.w3.org/1999/xlink" x="0px" y="0px"
	 viewBox="0 0 342 45" style="enable-background:new 0 0 342 45;" xml:space="preserve">
<style type="text/css">
	.st0{clip-path:url(#SVGID_2_);fill:#1566A6;}
</style>
<g>
	<defs>
		<rect id="SVGID_1_" width="342" height="45"/>
	</defs>
	<clipPath id="SVGID_2_">
		<use xlink:href="#SVGID_1_"  style="overflow:visible;"/>
	</clipPath>
	<path class="st0" d="M120.9,17.7h-5.5V1.9h5.5c5,0,8.4,3.4,8.4,7.9C129.3,14.3,125.9,17.7,120.9,17.7 M120.9,3.6h-3.7v12.5h3.7
		c4,0,6.5-2.7,6.5-6.2S124.9,3.6,120.9,3.6z"/>
	<path class="st0" d="M132.1,1.6h2v1.9h-2V1.6z M132.3,6.1h1.7v11.7h-1.7V6.1z"/>
	<polyline class="st0" points="146,6.1 147.9,6.1 142.8,17.8 141.3,17.8 136.2,6.1 138.1,6.1 142.1,15.7 146,6.1 	"/>
	<path class="st0" d="M150,1.6h2v1.9h-2V1.6z M150.1,6.1h1.7v11.7h-1.7V6.1z"/>
	<path class="st0" d="M159.1,18c-1.7,0-3.5-0.7-4.8-1.7l0.9-1.2c1.3,0.9,2.7,1.5,4,1.5c1.4,0,2.4-0.7,2.4-1.9v0
		c0-1.2-1.4-1.6-2.9-2.1c-1.8-0.5-3.9-1.2-3.9-3.3v0c0-2,1.7-3.3,4-3.3c1.4,0,3,0.5,4.2,1.3l-0.8,1.3c-1.1-0.7-2.3-1.1-3.5-1.1
		c-1.4,0-2.3,0.7-2.3,1.7v0c0,1.1,1.4,1.5,3,2c1.8,0.5,3.7,1.2,3.7,3.3v0C163.2,16.7,161.4,18,159.1,18"/>
	<path class="st0" d="M165.8,1.6h2v1.9h-2V1.6z M165.9,6.1h1.7v11.7h-1.7V6.1z"/>
	<path class="st0" d="M176.4,18c-3.5,0-6.1-2.8-6.1-6.1c0-3.3,2.6-6.1,6.1-6.1c3.5,0,6.1,2.8,6.1,6.1C182.5,15.2,179.9,18,176.4,18
		 M176.4,7.3c-2.5,0-4.3,2-4.3,4.5c0,2.5,1.9,4.6,4.3,4.6c2.5,0,4.3-2,4.3-4.5C180.7,9.4,178.8,7.3,176.4,7.3z"/>
	<path class="st0" d="M186.7,17.7h-1.7V6.1h1.7v2c0.8-1.3,2-2.3,4-2.3c2.8,0,4.5,1.9,4.5,4.7v7.2h-1.7v-6.8c0-2.2-1.2-3.5-3.2-3.5
		c-2,0-3.5,1.5-3.5,3.7V17.7"/>
	<path class="st0" d="M209.6,18c-3.5,0-6.1-2.8-6.1-6.1c0-3.3,2.6-6.1,6.1-6.1c3.5,0,6.1,2.8,6.1,6.1C215.7,15.2,213.1,18,209.6,18
		 M209.6,7.3c-2.5,0-4.3,2-4.3,4.5c0,2.5,1.9,4.6,4.3,4.6c2.5,0,4.3-2,4.3-4.5C213.9,9.4,212.1,7.3,209.6,7.3z"/>
	<path class="st0" d="M224.3,6.1v1.5h-3.7v10.1h-1.7V7.6h-1.6V6.1h1.6v-1c0-2.6,1.3-3.9,3.5-3.9c0.8,0,1.4,0.1,1.9,0.3V3
		c-0.6-0.2-1.1-0.3-1.7-0.3c-1.4,0-2,0.8-2,2.5v1H224.3"/>
	<path class="st0" d="M122.6,41.6c-4.6,0-7.9-3.6-7.9-8.2c0-4.5,3.3-8.2,8-8.2c2.9,0,4.6,1,6.2,2.5l-1.2,1.3c-1.3-1.3-2.8-2.2-5-2.2
		c-3.5,0-6.1,2.8-6.1,6.5c0,3.7,2.6,6.5,6.1,6.5c2.2,0,3.6-0.8,5.1-2.3l1.2,1.2C127.3,40.5,125.5,41.6,122.6,41.6"/>
	<path class="st0" d="M136.2,41.6c-3.5,0-6.1-2.8-6.1-6.1c0-3.3,2.6-6.1,6.1-6.1c3.5,0,6.1,2.8,6.1,6.1S139.7,41.6,136.2,41.6
		 M136.2,31c-2.5,0-4.3,2-4.3,4.5s1.9,4.6,4.3,4.6c2.5,0,4.3-2,4.3-4.5C140.5,33,138.7,31,136.2,31z"/>
	<path class="st0" d="M146.5,41.3h-1.7V29.7h1.7v2c0.8-1.3,2-2.3,4-2.3c2.8,0,4.5,1.9,4.5,4.7v7.2h-1.7v-6.8c0-2.2-1.2-3.5-3.2-3.5
		c-2,0-3.5,1.5-3.5,3.7V41.3"/>
	<path class="st0" d="M160.4,38c0,1.4,0.8,1.9,2,1.9c0.6,0,1.1-0.1,1.7-0.4V41c-0.6,0.3-1.3,0.5-2.1,0.5c-1.9,0-3.3-0.9-3.3-3.3v-7
		H157v-1.5h1.6v-3.5h1.7v3.5h3.7v1.5h-3.7V38"/>
	<path class="st0" d="M166.5,25.2h2v1.9h-2V25.2z M166.6,29.7h1.7v11.7h-1.7V29.7z"/>
	<path class="st0" d="M173.5,41.3h-1.7V29.7h1.7v2c0.8-1.3,2-2.3,4-2.3c2.8,0,4.5,1.9,4.5,4.7v7.2h-1.7v-6.8c0-2.2-1.2-3.5-3.2-3.5
		c-2,0-3.5,1.5-3.5,3.7V41.3"/>
	<path class="st0" d="M193.3,29.7h1.7v11.7h-1.7v-2c-0.8,1.3-2,2.3-4,2.3c-2.8,0-4.5-1.9-4.5-4.7v-7.2h1.7v6.8
		c0,2.2,1.2,3.5,3.2,3.5c2,0,3.5-1.5,3.5-3.7V29.7"/>
	<path class="st0" d="M198.3,25.2h2v1.9h-2V25.2z M198.4,29.7h1.7v11.7h-1.7V29.7z"/>
	<path class="st0" d="M205.2,41.3h-1.7V29.7h1.7v2c0.8-1.3,2-2.3,4-2.3c2.8,0,4.5,1.9,4.5,4.7v7.2h-1.7v-6.8c0-2.2-1.2-3.5-3.2-3.5
		c-2,0-3.5,1.5-3.5,3.7V41.3"/>
	<path class="st0" d="M221.9,45c-1.9,0-3.7-0.5-5.3-1.6l0.8-1.4c1.3,1,2.8,1.5,4.5,1.5c2.6,0,4.2-1.4,4.2-4.2V38
		c-1,1.4-2.4,2.5-4.6,2.5c-2.8,0-5.5-2.1-5.5-5.5c0-3.4,2.7-5.5,5.5-5.5c2.2,0,3.6,1.1,4.6,2.3v-2.1h1.7v9.6
		C227.8,43.1,225.5,45,221.9,45 M221.9,31c-2.2,0-4,1.5-4,4c0,2.4,1.9,4,4,4c2.2,0,4.3-1.6,4.3-4C226.1,32.5,224.1,31,221.9,31z"/>
	<polyline class="st0" points="248.8,27.2 239.2,27.2 239.2,32.6 247.8,32.6 247.8,34.2 239.2,34.2 239.2,39.7 248.9,39.7 
		248.9,41.3 237.4,41.3 237.4,25.5 248.8,25.5 248.8,27.2 	"/>
	<path class="st0" d="M260.7,41.3V39c-0.9,1.4-2.3,2.6-4.5,2.6c-2.8,0-5.6-2.2-5.6-6.1c0-3.8,2.8-6.1,5.6-6.1c2.2,0,3.6,1.2,4.5,2.5
		v-7h1.7v16.5H260.7 M256.6,31c-2.3,0-4.1,1.7-4.1,4.5c0,2.8,1.9,4.5,4.1,4.5c2.2,0,4.2-1.8,4.2-4.5C260.8,32.8,258.7,31,256.6,31z"
		/>
	<path class="st0" d="M274,29.7h1.7v11.7H274v-2c-0.8,1.3-2,2.3-4,2.3c-2.8,0-4.5-1.9-4.5-4.7v-7.2h1.7v6.8c0,2.2,1.2,3.5,3.2,3.5
		c2,0,3.5-1.5,3.5-3.7V29.7"/>
	<path class="st0" d="M284.2,41.6c-3.4,0-6-2.8-6-6.1c0-3.3,2.6-6.1,6-6.1c2.2,0,3.6,0.9,4.7,2.1l-1.2,1.2c-0.9-1-2-1.8-3.5-1.8
		c-2.4,0-4.2,2-4.2,4.5c0,2.6,1.9,4.6,4.3,4.6c1.5,0,2.6-0.7,3.6-1.7l1.1,1C287.7,40.7,286.3,41.6,284.2,41.6"/>
	<path class="st0" d="M291.8,31.9l-0.5-1.4c1.3-0.6,2.6-1,4.2-1c3.2,0,5,1.6,5,4.7v7.1h-1.7v-1.8c-0.8,1.1-2.2,2-4.2,2
		c-2.2,0-4.4-1.2-4.4-3.7c0-2.5,2-3.8,5-3.8c1.5,0,2.6,0.2,3.6,0.5v-0.4c0-2.1-1.3-3.2-3.5-3.2C294,31,292.9,31.4,291.8,31.9
		 M292,37.9c0,1.5,1.4,2.3,2.9,2.3c2.1,0,3.9-1.3,3.9-3.2v-1.1c-0.9-0.2-2-0.5-3.4-0.5C293.2,35.4,292,36.4,292,37.9z"/>
	<path class="st0" d="M305.8,38c0,1.4,0.8,1.9,2,1.9c0.6,0,1.1-0.1,1.7-0.4V41c-0.6,0.3-1.3,0.5-2.1,0.5c-1.9,0-3.3-0.9-3.3-3.3v-7
		h-1.6v-1.5h1.6v-3.5h1.7v3.5h3.7v1.5h-3.7V38"/>
	<path class="st0" d="M311.9,25.2h2v1.9h-2V25.2z M312,29.7h1.7v11.7H312V29.7z"/>
	<path class="st0" d="M322.4,41.6c-3.5,0-6.1-2.8-6.1-6.1c0-3.3,2.6-6.1,6.1-6.1c3.5,0,6.1,2.8,6.1,6.1S326,41.6,322.4,41.6
		 M322.4,31c-2.5,0-4.3,2-4.3,4.5s1.9,4.6,4.3,4.6c2.5,0,4.3-2,4.3-4.5C326.8,33,324.9,31,322.4,31z"/>
	<path class="st0" d="M332.8,41.3H331V29.7h1.7v2c0.8-1.3,2-2.3,4-2.3c2.8,0,4.5,1.9,4.5,4.7v7.2h-1.7v-6.8c0-2.2-1.2-3.5-3.2-3.5
		c-2,0-3.5,1.5-3.5,3.7V41.3"/>
	<path class="st0" d="M0,23.8V1.3h11.2v22.2c0,5.8,2.9,8.5,7.4,8.5s7.4-2.6,7.4-8.2V1.3h11.2v22.1c0,12.9-7.4,18.5-18.7,18.5
		C7.1,42,0,36.2,0,23.8"/>
	<path class="st0" d="M42.5,21.4v-0.1c0-11.6,8.9-20.8,21-20.8c8.2,0,13.4,3.4,16.9,8.3l-8.3,6.4c-2.3-2.9-4.9-4.7-8.7-4.7
		c-5.6,0-9.5,4.7-9.5,10.6v0.1c0,6,3.9,10.7,9.5,10.7c4.2,0,6.6-1.9,9-4.8l8.3,5.9c-3.8,5.2-8.8,9-17.7,9
		C51.6,42.1,42.5,33.3,42.5,21.4"/>
	<rect x="86.8" y="1.3" class="st0" width="11.1" height="39.9"/>
</g>
</svg>
